# xmcd
#
# Track frame offsets: 
#        182
#        13532
#        25950
#        35997
#        47460
#        59490
#        70522
#        82492
#        92267
#        110795
#        122222
#        137365
#        153235
#        166557
#        181010
#        195702
#        209775
#        225942
#        241260
#        252827
#        266225
#        279132
#
# Disc length: 3877 seconds
#
# Revision: 7
# Processed by: cddbd v1.5.2PL0 Copyright (c) Steve Scherf et al.
# Submitted via: ExactAudioCopy v1.0b6
#
DISCID=280f2316
DTITLE=Glen Campbell - The Capitol Years (65-77)
DYEAR=1998
DGENRE=Pop
TTITLE0=Honey Come Back
TTITLE1=Folk Singer
TTITLE2=Love Is Not A Game
TTITLE3=Evrything A Man Could Ever Need
TTITLE4=As Far As I'm Concerned
TTITLE5=It's Only Make Believe
TTITLE6=Dream Sweet Dreams About Me
TTITLE7=Just Another Piece Of Paper
TTITLE8=Last Time I Saw Her
TTITLE9=Don't It Make You Want To Go Home
TTITLE10=London (I'm Coming To See You)
TTITLE11=You Might As Well Smile
TTITLE12=About The Ocean
TTITLE13=Adoration
TTITLE14=Rhinestone Cowboy
TTITLE15=Country Boy
TTITLE16=Marie
TTITLE17=Comeback
TTITLE18=Christian No
TTITLE19=Southern Nights
TTITLE20=Sunflower
TTITLE21=This Is Sarah's Song
EXTD=YEAR: 1998
EXTT0=
EXTT1=
EXTT2=
EXTT3=
EXTT4=
EXTT5=
EXTT6=
EXTT7=
EXTT8=
EXTT9=
EXTT10=
EXTT11=
EXTT12=
EXTT13=
EXTT14=
EXTT15=
EXTT16=
EXTT17=
EXTT18=
EXTT19=
EXTT20=
EXTT21=
PLAYORDER=
